<?xml version="1.0" encoding="UTF-8" standalone="no"?>
<svg width="150px" height="120px" viewBox="92 -5 150 120" version="1.1" xmlns="http://www.w3.org/2000/svg" xmlns:xlink="http://www.w3.org/1999/xlink">
    <!-- Generator: Sketch 3.8.3 (29802) - http://www.bohemiancoding.com/sketch -->
    <title>Slice 1</title>
    <desc>Created with Sketch.</desc>
    <defs>
        <polygon id="path-1" points="115.4185 0.027 0.06 0.027 0.06 187.918 230.777 187.918 230.777 0.027 115.4185 0.027"></polygon>
    </defs>
    <g id="Page-1" stroke="none" stroke-width="1" fill="none" fill-rule="evenodd">
        <g id="Sitehost-Logo-SPOT-L-Grey-10%-Portrait">
            <polyline id="Fill-1" fill="#C2422B" points="100.643 0.027 100.643 28.773 118.268 55.13 100.643 81.487 100.643 113.396 131.671 55.13 100.643 0.027"></polyline>
            <polyline id="Fill-2" fill="#E7792B" points="199.764 55.13 100.643 0.027 131.671 55.13 230.777 113.396 199.764 55.13"></polyline>
            <polyline id="Fill-3" fill="#DE4A2A" points="131.671 55.13 100.643 113.396 163.122 76.646 131.671 55.13"></polyline>
            <polyline id="Fill-4" fill="#C2422B" points="230.777 0.027 230.777 28.773 213.151 55.13 230.777 81.487 230.777 113.396 199.764 55.13 230.777 0.027"></polyline>
            <g id="Group-8">
                <mask id="mask-2" fill="white">
                    <use xlink:href="#path-1"></use>
                </mask>
                <g id="Clip-6"></g>
                <polyline id="Fill-5" fill="#DE4A2A" mask="url(#mask-2)" points="230.777 0.027 170.249 35.443 199.764 55.13 230.777 0.027"></polyline>
            </g>
        </g>
    </g>
</svg>